#N canvas 953 0 958 988 10;
#X declare -lib mrpeach;
#X obj 299 841 spigot;
#X floatatom 256 882 5 0 0 0 - - -;
#X obj 299 915 print;
#X msg 299 881 Hello World;
#X obj 49 51 udpreceive 8338;
#X obj 49 81 unpackOSC;
#X obj 49 553 routeOSC /position /scale /orientation;
#X obj 199 609 unpack f f f;
#X obj 49 606 unpack f f;
#X floatatom 124 608 5 0 0 1 scale - -;
#X floatatom 49 649 5 0 0 1 x - -;
#X floatatom 106 650 5 0 0 1 y - -;
#X floatatom 199 650 5 0 0 1 x - -;
#X floatatom 255 650 5 0 0 1 y - -;
#X floatatom 310 651 5 0 0 1 z - -;
#X floatatom 108 506 5 0 0 1 mouth_width - -;
#X obj 108 460 routeOSC /width /height;
#X floatatom 175 485 5 0 0 1 mouth_height - -;
#X obj 108 190 routeOSC /mouth /eyebrow /eye /jaw /nostrils;
#X floatatom 160 425 5 0 0 1 L_eyebrow - -;
#X floatatom 221 401 5 0 0 1 R_eyebrow - -;
#X obj 160 365 routeOSC /left /right;
#X floatatom 264 245 5 0 0 1 jaw - -;
#X floatatom 316 222 5 0 0 1 nostrils - -;
#X floatatom 212 333 5 0 0 1 L_eye - -;
#X floatatom 273 314 5 0 0 1 R_eye - -;
#X obj 212 278 routeOSC /left /right;
#X floatatom 167 161 5 0 0 1 num_faces_found - -;
#X text 62 109 OSC message breakout;
#X text 48 23 FaceOSC sends on port 8338 by default;
#X obj 49 131 routeOSC /pose /gesture /found;
#X text 376 63 2012 Dan Wilcox danomatika.com for the IACD class at
the CMU School of Art;
#X obj 300 484 maxlib/scale 0 10 150 800;
#X obj 481 486 maxlib/scale 6 9 0 0.6;
#X floatatom 300 513 5 0 0 0 - - -;
#X floatatom 481 514 5 0 0 0 - - -;
#X obj 300 541 osc~;
#X obj 300 571 *~;
#X obj 300 598 dac~;
#X text 367 408 mouth height controls oscilator pitch \, raise left
eyebrow for volume boost;
#X text 377 105 based on the example max by Craig Fahner http://cmuems.com/2011/a/unit-60-pd/
;
#X obj 624 27 import mrpeach;
#X obj 296 749 r x;
#X floatatom 331 805 5 0 0 0 - - -;
#X obj 485 152 bng 15 250 50 0 empty empty empty 17 7 0 10 -262144
-1 -1;
#X floatatom 485 202 5 0 0 0 - - -;
#X obj 296 781 > 5;
#X floatatom 543 202 5 0 0 0 - - -;
#X floatatom 601 202 5 0 0 0 - - -;
#X floatatom 658 202 5 0 0 0 - - -;
#X obj 485 175 expr zr;
#X obj 543 175 expr zx;
#X obj 601 175 expr zy;
#X obj 658 175 expr zz;
#X obj 270 421 value zx;
#X floatatom 777 327 5 0 0 0 - - -;
#X obj 377 249 value zr;
#X obj 270 445 value zy;
#X obj 108 529 value zz;
#X obj 485 231 value rr;
#X obj 543 231 value rx;
#X obj 601 231 value ry;
#X obj 658 231 value rz;
#X obj 777 285 expr if(rr > 6 \, 1 \, 0) \;;
#X obj 515 699 text2d;
#X obj 512 604 gemhead;
#X obj 512 632 color 1 1 0;
#X msg 651 600 create;
#X obj 651 637 gemwin;
#X msg 700 600 destroy;
#X obj 618 601 tgl 15 0 empty empty empty 17 7 0 10 -262144 -1 -1 0
1;
#X msg 513 664 Hello World;
#X connect 0 0 1 0;
#X connect 0 0 3 0;
#X connect 3 0 2 0;
#X connect 4 0 5 0;
#X connect 5 0 30 0;
#X connect 6 0 8 0;
#X connect 6 1 9 0;
#X connect 6 2 7 0;
#X connect 7 0 12 0;
#X connect 7 1 13 0;
#X connect 7 2 14 0;
#X connect 8 0 10 0;
#X connect 8 1 11 0;
#X connect 15 0 58 0;
#X connect 16 0 15 0;
#X connect 16 1 17 0;
#X connect 17 0 32 0;
#X connect 18 0 16 0;
#X connect 18 1 21 0;
#X connect 18 2 26 0;
#X connect 18 3 22 0;
#X connect 18 4 23 0;
#X connect 19 0 33 0;
#X connect 19 0 57 0;
#X connect 20 0 54 0;
#X connect 21 0 19 0;
#X connect 21 1 20 0;
#X connect 23 0 56 0;
#X connect 26 0 24 0;
#X connect 26 1 25 0;
#X connect 30 0 6 0;
#X connect 30 1 18 0;
#X connect 30 2 27 0;
#X connect 32 0 34 0;
#X connect 33 0 35 0;
#X connect 34 0 36 0;
#X connect 35 0 37 1;
#X connect 36 0 37 0;
#X connect 37 0 38 0;
#X connect 37 0 38 1;
#X connect 43 0 0 1;
#X connect 43 0 0 0;
#X connect 44 0 50 0;
#X connect 44 0 51 0;
#X connect 44 0 52 0;
#X connect 44 0 53 0;
#X connect 45 0 59 0;
#X connect 46 0 43 0;
#X connect 47 0 60 0;
#X connect 48 0 61 0;
#X connect 49 0 62 0;
#X connect 50 0 45 0;
#X connect 51 0 47 0;
#X connect 52 0 48 0;
#X connect 53 0 49 0;
#X connect 63 0 55 0;
#X connect 65 0 66 0;
#X connect 66 0 71 0;
#X connect 67 0 68 0;
#X connect 69 0 68 0;
#X connect 70 0 68 0;
#X connect 71 0 64 0;
