#N canvas 955 0 956 988 10;
#X declare -lib mrpeach;
#X obj 660 29 udpreceive 8338;
#X obj 660 59 unpackOSC;
#X obj 660 531 routeOSC /position /scale /orientation;
#X obj 810 587 unpack f f f;
#X obj 660 584 unpack f f;
#X floatatom 735 586 5 0 0 1 scale - -;
#X floatatom 660 627 5 0 0 1 x - -;
#X floatatom 717 628 5 0 0 1 y - -;
#X floatatom 810 628 5 0 0 1 x - -;
#X floatatom 866 628 5 0 0 1 y - -;
#X floatatom 921 629 5 0 0 1 z - -;
#X floatatom 719 484 5 0 0 1 mouth_width - -;
#X obj 719 438 routeOSC /width /height;
#X floatatom 786 463 5 0 0 1 mouth_height - -;
#X obj 719 168 routeOSC /mouth /eyebrow /eye /jaw /nostrils;
#X floatatom 771 403 5 0 0 1 L_eyebrow - -;
#X floatatom 832 379 5 0 0 1 R_eyebrow - -;
#X obj 771 343 routeOSC /left /right;
#X floatatom 875 223 5 0 0 1 jaw - -;
#X floatatom 927 200 5 0 0 1 nostrils - -;
#X floatatom 823 311 5 0 0 1 L_eye - -;
#X floatatom 884 292 5 0 0 1 R_eye - -;
#X obj 823 256 routeOSC /left /right;
#X floatatom 778 139 5 0 0 1 num_faces_found - -;
#X text 673 87 OSC message breakout;
#X text 659 1 FaceOSC sends on port 8338 by default;
#X obj 660 109 routeOSC /pose /gesture /found;
#X text 987 41 2012 Dan Wilcox danomatika.com for the IACD class at
the CMU School of Art;
#X obj 911 462 maxlib/scale 0 10 150 800;
#X obj 1092 464 maxlib/scale 6 9 0 0.6;
#X floatatom 911 491 5 0 0 0 - - -;
#X floatatom 1092 492 5 0 0 0 - - -;
#X obj 911 519 osc~;
#X obj 911 549 *~;
#X obj 911 576 dac~;
#X text 978 386 mouth height controls oscilator pitch \, raise left
eyebrow for volume boost;
#X text 988 83 based on the example max by Craig Fahner http://cmuems.com/2011/a/unit-60-pd/
;
#X obj -44 8 import mrpeach;
#X obj 194 15 bng 15 250 50 0 empty empty empty 17 7 0 10 -262144 -1
-1;
#X floatatom 194 65 5 0 0 0 - - -;
#X floatatom 252 65 5 0 0 0 - - -;
#X floatatom 310 65 5 0 0 0 - - -;
#X floatatom 367 65 5 0 0 0 - - -;
#X obj 194 38 expr zr;
#X obj 252 38 expr zx;
#X obj 310 38 expr zy;
#X obj 367 38 expr zz;
#X obj 881 399 value zx;
#X obj 988 227 value zr;
#X obj 881 423 value zy;
#X obj 719 507 value zz;
#X obj 194 94 value rr;
#X obj 252 94 value rx;
#X obj 310 94 value ry;
#X obj 367 94 value rz;
#X obj 1000 268 s ar;
#X obj -39 135 r ar;
#X floatatom -39 160 5 0 0 0 - - -;
#X obj -39 186 expr if($f1 > $f2 \, 1 \, 0) \;;
#X floatatom -39 213 5 0 0 0 - - -;
#X obj 681 508 s az;
#X obj 736 382 s ax;
#X obj 738 404 s ay;
#X floatatom 118 160 5 0 0 0 - - -;
#X floatatom 118 212 5 0 0 0 - - -;
#X floatatom 277 161 5 0 0 0 - - -;
#X floatatom 277 213 5 0 0 0 - - -;
#X floatatom 438 162 5 0 0 0 - - -;
#X floatatom 438 214 5 0 0 0 - - -;
#X obj 118 135 r ax;
#X obj 277 136 r ay;
#X obj 438 137 r az;
#X floatatom 534 160 5 0 0 0 - - -;
#X floatatom 370 160 5 0 0 0 - - -;
#X floatatom 217 159 5 0 0 0 - - -;
#X floatatom 59 158 5 0 0 0 - - -;
#X obj 438 188 expr if($f1 > $f2 \, 1 \, 0) \;;
#X obj 498 138 expr rz + 1.192;
#X obj 24 134 expr rr + 0.33;
#X obj 176 135 expr rx + 0.312;
#X obj 328 135 expr ry + 0.312;
#X obj 175 237 expr $f1 + $f2 + $f3 + $f4;
#X floatatom 174 262 5 0 0 0 - - -;
#X obj 174 484 text2d;
#X msg 174 378 list You Failed;
#X obj 174 402 l2s;
#X msg 174 457 text \$1;
#X floatatom 174 309 5 0 0 0 - - -;
#X symbolatom 174 428 10 0 0 0 - - -;
#X msg 279 363 list Challenge Accepted;
#X obj 279 401 l2s;
#X obj 118 456 gemhead;
#X obj 50 78 gemwin;
#X obj 32 58 bng 15 250 50 0 empty empty empty 17 7 0 10 -262144 -1
-1;
#X msg 50 37 create;
#X msg 62 57 destroy;
#X obj 174 331 spigot;
#X floatatom 174 355 5 0 0 0 - - -;
#X obj 118 186 expr if($f1 < $f2 \, 1 \, 0) \;;
#X obj 277 187 expr if($f1 < $f2 \, 1 \, 0) \;;
#X text 299 330 <-------Step 1;
#X text 218 11 <------Step 2;
#X text 94 34 <----Step 3;
#X text -40 57 Step 4 --->;
#X text -41 522 To reset just do everything step by step or click step
1 again.;
#X obj 174 286 > 3;
#X obj 279 332 bng 15 250 50 0 empty empty empty 17 7 0 10 -262144
-1 -1;
#X text -34 242 This piece of code does all the logical stuff and to
see if your facial expression has changed to what we concieve as a
cringe.;
#X text 484 68;
#X text 423 33 This patch is to set up your regular face. It's an indicator
if your face cringes or not;
#X connect 0 0 1 0;
#X connect 1 0 26 0;
#X connect 2 0 4 0;
#X connect 2 1 5 0;
#X connect 2 2 3 0;
#X connect 3 0 8 0;
#X connect 3 1 9 0;
#X connect 3 2 10 0;
#X connect 4 0 6 0;
#X connect 4 1 7 0;
#X connect 11 0 50 0;
#X connect 11 0 60 0;
#X connect 12 0 11 0;
#X connect 12 1 13 0;
#X connect 13 0 28 0;
#X connect 14 0 12 0;
#X connect 14 1 17 0;
#X connect 14 2 22 0;
#X connect 14 3 18 0;
#X connect 14 4 19 0;
#X connect 15 0 29 0;
#X connect 15 0 49 0;
#X connect 15 0 62 0;
#X connect 16 0 47 0;
#X connect 16 0 61 0;
#X connect 17 0 15 0;
#X connect 17 1 16 0;
#X connect 19 0 48 0;
#X connect 19 0 55 0;
#X connect 22 0 20 0;
#X connect 22 1 21 0;
#X connect 26 0 2 0;
#X connect 26 1 14 0;
#X connect 26 2 23 0;
#X connect 28 0 30 0;
#X connect 29 0 31 0;
#X connect 30 0 32 0;
#X connect 31 0 33 1;
#X connect 32 0 33 0;
#X connect 33 0 34 0;
#X connect 33 0 34 1;
#X connect 38 0 43 0;
#X connect 38 0 44 0;
#X connect 38 0 45 0;
#X connect 38 0 46 0;
#X connect 39 0 51 0;
#X connect 40 0 52 0;
#X connect 41 0 53 0;
#X connect 42 0 54 0;
#X connect 43 0 39 0;
#X connect 44 0 40 0;
#X connect 45 0 41 0;
#X connect 46 0 42 0;
#X connect 56 0 57 0;
#X connect 56 0 78 0;
#X connect 57 0 58 0;
#X connect 58 0 59 0;
#X connect 59 0 81 0;
#X connect 63 0 98 0;
#X connect 64 0 81 1;
#X connect 65 0 99 0;
#X connect 66 0 81 2;
#X connect 67 0 76 0;
#X connect 68 0 81 3;
#X connect 69 0 63 0;
#X connect 69 0 79 0;
#X connect 70 0 65 0;
#X connect 70 0 80 0;
#X connect 71 0 67 0;
#X connect 71 0 77 0;
#X connect 72 0 76 1;
#X connect 73 0 99 1;
#X connect 74 0 98 1;
#X connect 75 0 58 1;
#X connect 76 0 68 0;
#X connect 77 0 72 0;
#X connect 78 0 75 0;
#X connect 79 0 74 0;
#X connect 80 0 73 0;
#X connect 81 0 82 0;
#X connect 82 0 105 0;
#X connect 84 0 85 0;
#X connect 85 0 88 0;
#X connect 86 0 83 0;
#X connect 87 0 96 0;
#X connect 87 0 96 1;
#X connect 88 0 86 0;
#X connect 89 0 90 0;
#X connect 90 0 88 0;
#X connect 91 0 83 0;
#X connect 93 0 92 0;
#X connect 94 0 92 0;
#X connect 95 0 92 0;
#X connect 96 0 97 0;
#X connect 97 0 84 0;
#X connect 98 0 64 0;
#X connect 99 0 66 0;
#X connect 105 0 87 0;
#X connect 106 0 89 0;
