#N canvas 953 0 958 988 10;
#X declare -lib mrpeach;
#X obj 761 31 udpreceive 8338;
#X obj 761 61 unpackOSC;
#X obj 761 533 routeOSC /position /scale /orientation;
#X obj 911 589 unpack f f f;
#X obj 761 586 unpack f f;
#X floatatom 836 588 5 0 0 1 scale - -;
#X floatatom 761 629 5 0 0 1 x - -;
#X floatatom 818 630 5 0 0 1 y - -;
#X floatatom 911 630 5 0 0 1 x - -;
#X floatatom 967 630 5 0 0 1 y - -;
#X floatatom 1022 631 5 0 0 1 z - -;
#X floatatom 820 486 5 0 0 1 mouth_width - -;
#X obj 820 440 routeOSC /width /height;
#X floatatom 887 465 5 0 0 1 mouth_height - -;
#X obj 820 170 routeOSC /mouth /eyebrow /eye /jaw /nostrils;
#X floatatom 872 405 5 0 0 1 L_eyebrow - -;
#X floatatom 933 381 5 0 0 1 R_eyebrow - -;
#X obj 872 345 routeOSC /left /right;
#X floatatom 976 225 5 0 0 1 jaw - -;
#X floatatom 1028 202 5 0 0 1 nostrils - -;
#X floatatom 924 313 5 0 0 1 L_eye - -;
#X floatatom 985 294 5 0 0 1 R_eye - -;
#X obj 924 258 routeOSC /left /right;
#X floatatom 879 141 5 0 0 1 num_faces_found - -;
#X text 774 89 OSC message breakout;
#X text 760 3 FaceOSC sends on port 8338 by default;
#X obj 761 111 routeOSC /pose /gesture /found;
#X text 1088 43 2012 Dan Wilcox danomatika.com for the IACD class at
the CMU School of Art;
#X obj 1012 464 maxlib/scale 0 10 150 800;
#X obj 1193 466 maxlib/scale 6 9 0 0.6;
#X floatatom 1012 493 5 0 0 0 - - -;
#X floatatom 1193 494 5 0 0 0 - - -;
#X obj 1012 521 osc~;
#X obj 1012 551 *~;
#X obj 1012 578 dac~;
#X text 1079 388 mouth height controls oscilator pitch \, raise left
eyebrow for volume boost;
#X text 1089 85 based on the example max by Craig Fahner http://cmuems.com/2011/a/unit-60-pd/
;
#X obj -44 8 import mrpeach;
#X obj 517 25 bng 15 250 50 0 empty empty empty 17 7 0 10 -262144 -1
-1;
#X floatatom 517 75 5 0 0 0 - - -;
#X floatatom 575 75 5 0 0 0 - - -;
#X floatatom 633 75 5 0 0 0 - - -;
#X floatatom 690 75 5 0 0 0 - - -;
#X obj 517 48 expr zr;
#X obj 575 48 expr zx;
#X obj 633 48 expr zy;
#X obj 690 48 expr zz;
#X obj 982 401 value zx;
#X obj 1089 229 value zr;
#X obj 982 425 value zy;
#X obj 820 509 value zz;
#X obj 517 104 value rr;
#X obj 575 104 value rx;
#X obj 633 104 value ry;
#X obj 690 104 value rz;
#X text 514 1 Setting your regular facial expression;
#X obj 29 197 expr rr + 0.67;
#X obj 1101 270 s ar;
#X obj -37 170 r ar;
#X floatatom -37 195 5 0 0 0 - - -;
#X obj -37 221 expr if($f1 > $f2 \, 1 \, 0) \;;
#X floatatom -37 248 5 0 0 0 - - -;
#X obj 782 510 s az;
#X obj 837 384 s ax;
#X obj 839 406 s ay;
#X floatatom 120 195 5 0 0 0 - - -;
#X obj 120 221 expr if($f1 > $f2 \, 1 \, 0) \;;
#X floatatom 120 247 5 0 0 0 - - -;
#X floatatom 279 196 5 0 0 0 - - -;
#X obj 279 222 expr if($f1 > $f2 \, 1 \, 0) \;;
#X floatatom 279 248 5 0 0 0 - - -;
#X floatatom 440 197 5 0 0 0 - - -;
#X floatatom 440 249 5 0 0 0 - - -;
#X obj 120 170 r ax;
#X obj 279 171 r ay;
#X obj 440 172 r az;
#X obj 339 198 expr ry + 0.624;
#X obj 180 198 expr rx + 0.624;
#X obj 514 176 expr rz - 2.192;
#X obj 440 223 expr if($f1 < $f2 \, 1 \, 0) \;;
#X obj 37 558 expr rz - 2.192;
#X floatatom 35 608 5 0 0 0 - - -;
#X obj -23 677 expr if($f1 < $f2 \, 1 \, 0) \;;
#X floatatom -31 614 5 0 0 0 - - -;
#X floatatom -20 728 5 0 0 0 - - -;
#X floatatom 580 202 5 0 0 0 - - -;
#X connect 0 0 1 0;
#X connect 1 0 26 0;
#X connect 2 0 4 0;
#X connect 2 1 5 0;
#X connect 2 2 3 0;
#X connect 3 0 8 0;
#X connect 3 1 9 0;
#X connect 3 2 10 0;
#X connect 4 0 6 0;
#X connect 4 1 7 0;
#X connect 11 0 50 0;
#X connect 11 0 62 0;
#X connect 12 0 11 0;
#X connect 12 1 13 0;
#X connect 13 0 28 0;
#X connect 14 0 12 0;
#X connect 14 1 17 0;
#X connect 14 2 22 0;
#X connect 14 3 18 0;
#X connect 14 4 19 0;
#X connect 15 0 29 0;
#X connect 15 0 49 0;
#X connect 15 0 64 0;
#X connect 16 0 47 0;
#X connect 16 0 63 0;
#X connect 17 0 15 0;
#X connect 17 1 16 0;
#X connect 19 0 48 0;
#X connect 19 0 57 0;
#X connect 22 0 20 0;
#X connect 22 1 21 0;
#X connect 26 0 2 0;
#X connect 26 1 14 0;
#X connect 26 2 23 0;
#X connect 28 0 30 0;
#X connect 29 0 31 0;
#X connect 30 0 32 0;
#X connect 31 0 33 1;
#X connect 32 0 33 0;
#X connect 33 0 34 0;
#X connect 33 0 34 1;
#X connect 38 0 43 0;
#X connect 38 0 44 0;
#X connect 38 0 45 0;
#X connect 38 0 46 0;
#X connect 39 0 51 0;
#X connect 40 0 52 0;
#X connect 41 0 53 0;
#X connect 42 0 54 0;
#X connect 43 0 39 0;
#X connect 44 0 40 0;
#X connect 45 0 41 0;
#X connect 46 0 42 0;
#X connect 56 0 60 1;
#X connect 58 0 59 0;
#X connect 59 0 60 0;
#X connect 60 0 61 0;
#X connect 65 0 66 0;
#X connect 66 0 67 0;
#X connect 68 0 69 0;
#X connect 69 0 70 0;
#X connect 71 0 79 0;
#X connect 73 0 65 0;
#X connect 74 0 68 0;
#X connect 75 0 71 0;
#X connect 75 0 78 0;
#X connect 76 0 69 1;
#X connect 77 0 66 1;
#X connect 78 0 85 0;
#X connect 79 0 72 0;
#X connect 80 0 81 0;
#X connect 81 0 82 1;
#X connect 82 0 84 0;
#X connect 83 0 82 0;
#X connect 85 0 79 1;
